<svg height="18" width="20" xmlns="http://www.w3.org/2000/svg" viewBox="0 0 20 18"><path d="M14.6755 0c1.595 0 2.925.5654 3.8585 1.5419C19.461 2.5115 20 3.8926 20 5.5496c0 5.2998-9.0237 11.7637-9.4105 12.0358L10 18l-.589-.4146C9.024 17.3134 0 10.8494 0 5.5496c0-1.657.539-3.0381 1.466-4.0077C2.3995.5654 3.7295 0 5.3245 0c1.5976 0 3.2591.7484 4.6757 2.1035C11.4166.7483 13.0776 0 14.6755 0zm0 1.9694c-1.1311 0-2.3301.6033-3.3776 1.6515.9236 1.3215 1.4729 2.7754 1.5085 4.008.0249.8531-.3165 1.7184-.9107 2.3155-.5178.5198-1.1917.8037-1.8957.8037s-1.3776-.2836-1.895-.8033c-.5945-.597-.9359-1.4623-.9114-2.3159.0356-1.2325.5849-2.6867 1.5085-4.0076-1.0473-1.0485-2.246-1.6519-3.3776-1.6519-1.0913 0-1.8722.3612-2.3968.9246-.6528.7011-.9105 1.6987-.9105 2.6556 0 3.3948 5.3216 8.0186 7.9823 10.0086 2.6607-1.9894 7.9833-6.6136 7.9833-10.0086 0-.9569-.2577-1.9545-.9105-2.6556-.5246-.5634-1.3055-.9246-2.3968-.9246zM10 5.3088c-.4783.8244-.7698 1.6709-.7902 2.3753-.0093.3247.12.6654.3413.8877.1322.1325.289.2052.4491.2052.16 0 .3167-.0728.4486-.2055.2217-.2225.3507-.5631.3414-.8874-.0204-.7041-.312-1.5508-.7902-2.3753z" fill="#ccc"/></svg>