<svg xmlns="http://www.w3.org/2000/svg" width="610" height="418" viewBox="0 0 610 418"><g fill="none"><path fill="#000" d="M109 387.3c1.3 0 2.4-1 2.4-2.3 0-1-.7-1.8-1.9-1.8-1 0-2.2 1-2.2 2.2 0 1 .8 2 1.8 2zm-2.2 22c1.9 0 3.5-1.8 3.8-2.3l-.5-.8c-.9.9-1.3 1-1.6 1-.4 0-.5-.4-.4-1.1l2.2-14.9-.8-.4-4.7.8-.3 1.3 2.3.8-2 13.6c0 1.5.7 2 2 2zm19.7 0c1.8 0 3.3-1.5 3.5-2l-.5-.7c-.7.5-1 .7-1.3.7-.3 0-.4-.5-.3-1.2 0-1.6.4-3.4.7-5 .3-1.7.8-4 .8-5.6 0-3.5-1.4-4.7-3.6-4.7-2.3 0-4.7 1.7-6.3 3.7l.3-3.3-.8-.4-3.8.8-.2 1.4 1.5 1-2 15h3l1.6-11.8c1.6-2.2 3.8-3.9 5.4-3.9 1 0 1.7.2 1.7 2.4 0 2-.5 4.6-.8 6.4-.4 1.7-.7 3.7-.8 5.2-.1 1.5.7 2 2 2zm18.3 0a8 8 0 004.9-2.3l-.3-1.2a7 7 0 01-3 1.3c-1 0-1.3-.3-1.3-1.4l.3-2.8 1.3-9.8h4l.3-2.1h-4l.5-4.1H146c-.6 1.4-1.4 3.4-2.1 4.1l-2 .8-.2 1.3h1.8l-1.4 11.3-.2 2.1c0 2.2 1.3 2.8 2.9 2.8zm20.2 0c1.9 0 3.6-1.7 3.8-2l-.5-.9c-1 .7-1.3.9-1.7.9-.3 0-.3-.5-.3-1.2.1-1.6.4-3.4.7-5 .4-1.7.8-4 .8-5.6 0-3.5-1.4-4.7-3.5-4.7-2.5 0-4.8 1.8-6.5 4l1.5-11.2-.8-.4-4.1.7-.3 1.3 1.8.6-3 23.2h3l1.6-11.7c1.6-2.3 3.8-4 5.4-4 1 0 1.8.2 1.8 2.4 0 2-.5 4.6-.9 6.4-.3 1.7-.7 3.7-.8 5.2 0 1.5.7 2 2 2zm13 0c3 0 5.5-2 6.4-3.1l-.7-1.3a7.9 7.9 0 01-5.3 2.2c-2.9 0-3.6-3.3-3.4-5.3 3 0 10.4-2.2 10.4-7 0-2.3-1.4-4-4.4-4-5.2 0-9 5.6-9.2 11.5-.1 3.5 1.8 7 6.2 7zm-2.9-9.2c.3-2.6 2-7.4 5.2-7.4 1.1 0 2 .7 2 2.3 0 3.2-4.7 5-7.2 5zm35.1 8.9l1.5-6.7-1.8-.4-2.2 5.1-7.3.2L203 387l2.9-.3.2-1.6H198l-.2 1.6 2 .3-2.5 20.2-2.3.4v1.4h15.2zm9.4-21.7c1.2 0 2.3-1 2.3-2.3 0-1-.7-1.8-1.9-1.8-1 0-2.2 1-2.2 2.2 0 1 .8 2 1.8 2zm-2.3 22c1.9 0 3.5-1.8 3.8-2.3l-.5-.8c-.9.9-1.3 1-1.6 1-.4 0-.5-.4-.4-1.1l2.2-14.9-.8-.4-4.7.8-.3 1.3 2.3.8-2 13.6c0 1.5.7 2 2 2zm10.6 0l2.3-.2 3.7-5.1c1.8-2.8 4.5-7.2 4.5-10 0-2-.6-3.2-2-3.2-.8 0-1.4.6-1.4 1.7 0 .7.6 1.4.4 2.5a24 24 0 01-3.8 8.7l-1.8 2.6-.2-2.8-1-10.5c-.2-1.4-.5-2.2-2.1-2.2s-2.9 1.3-3 1.7l.4 1c.3-.3.6-.5 1-.5.2 0 .4.3.6 1l1.5 9.5.9 5.8zm19 0c3 0 5.6-2 6.5-3.1l-.8-1.3a7.9 7.9 0 01-5.3 2.2c-2.8 0-3.6-3.3-3.3-5.3 3 0 10.4-2.2 10.4-7 0-2.3-1.5-4-4.5-4-5.2 0-9 5.6-9.2 11.5 0 3.5 1.8 7 6.3 7zm-2.9-9.2c.4-2.6 2-7.4 5.2-7.4 1.1 0 2 .7 2 2.3 0 3.2-4.6 5-7.2 5zm17 8.9l1.3-11.2c1.2-2.8 3.2-3.7 4.7-3.7a4 4 0 011.6.2l.7-3.3-1-.2c-3 0-5 2.7-5.6 4l.3-3.6-.7-.4-3.8.8-.3 1.4 1.6 1-2 15h3.1zm11.4 8.1l1.1-8 2.1.2c6.4 0 10-7 10-11.7 0-4-1.7-6.8-5.3-6.8a6 6 0 00-4.6 2.3l.3-1.9-.7-.4-4.1.8-.3 1.3 1.7.8-3.1 23.4h3zm3.7-9.7a4 4 0 01-2.3-.5l1.6-11.2c.9-1.2 2.6-2.6 4.4-2.6 1.6 0 2.6 1.7 2.6 4.7 0 3.8-2 9.6-6.3 9.6zm18.4 2c5.3 0 9-5.7 8.9-11.4 0-4.5-2.3-7.2-6.2-7.2-5.3 0-9 5.7-8.9 11.3.1 4.6 2.3 7.2 6.2 7.2zm.6-2c-2.3 0-3.5-2-3.5-5.3-.1-4 1.5-9.4 5-9.4 2.3 0 3.5 2 3.5 5.3.1 4-1.5 9.4-5 9.4zm17.3 2c5.2 0 9-5.7 8.9-11.4-.1-4.5-2.3-7.2-6.3-7.2-5.2 0-9 5.7-8.8 11.3 0 4.6 2.2 7.2 6.2 7.2zm.5-2c-2.3 0-3.4-2-3.5-5.3 0-4 1.5-9.4 5-9.4 2.4 0 3.5 2 3.6 5.3 0 4-1.5 9.4-5 9.4zm13.8 2c1.9 0 3.5-1.9 3.8-2.4l-.5-.8c-1 1-1.4 1-1.7 1-.3 0-.4-.4-.3-1.1l3.1-22.5-.7-.4-4.1.7-.3 1.3 1.9.6L325 406v1.2c0 1.5.5 2.1 1.7 2.1zm22.4-.1c3.5 0 6-1 7.1-1.4l.7-5.2h-2l-1 3.1c-.6 1.2-2.7 1.6-4.1 1.6-3.8 0-5.3-4.4-5.3-8.5-.1-4.7 1.8-12.2 7.8-12.2 2 0 2.8.3 3.3.7l.4 4h1.8l1-5.7-.6-.1c-1-.3-2.7-.8-5.5-.8-6.2 0-11.7 5.8-11.5 14.4 0 4.8 2.3 10 8 10zm16.5-22c1.2 0 2.3-1 2.3-2.3 0-1-.7-1.8-1.9-1.8-1 0-2.2 1-2.2 2.2 0 1 .8 2 1.8 2zm-2.3 22c1.9 0 3.5-1.8 3.8-2.3l-.5-.8c-.9.9-1.3 1-1.6 1-.4 0-.5-.4-.4-1.1l2.2-14.9-.8-.4-4.7.8-.3 1.3 2.3.8-2 13.6c0 1.5.7 2 2 2zm10.7 0a8 8 0 005-2.3l-.3-1.2a7 7 0 01-3 1.3c-1.1 0-1.3-.3-1.3-1.4 0-.6 0-1.6.2-2.8l1.3-9.8h4l.4-2.1h-4.1l.5-4.1h-1.5c-.5 1.4-1.4 3.4-2 4.1l-2 .8-.3 1.3h1.9l-1.4 11.3-.2 2.1c0 2.2 1.3 2.8 2.8 2.8zm7 7.6c3 0 4.8-1.5 5.6-2.6 1.3-1.5 3-4.3 6-10.3 1.6-3 3.8-6.7 3.8-10.2 0-2-.6-3-2-3-.9 0-1.5.6-1.5 1.7 0 .7.6 1.4.4 2.5-.4 3.5-1.6 5.5-3 8.7l-2.4 5-.3-4.3-1.4-11.4c-.2-1.3-.5-2.2-2-2.2-1.7 0-3.2 1.6-3.4 2l.4 1c.8-.7 1-.8 1.3-.8.3 0 .5.3.6 1l2.7 15.8h1c-1.6 3.7-3.8 4.8-5.1 4.8-1.5 0-2.4-.5-2.7-.6l-.7 2.5c.6.2 2 .4 2.7.4zm43.7-7.9v-1.5c-2 0-2.9-1.2-4.5-5.5-.5-1.4-1.1-3-2.5-3.9 3.8-1 6-4 5.9-7.8-.1-3.7-2.6-5.5-7.8-5.5-1.6 0-3.2.3-4.7.3h-3l-.1 1.6 2 .3-2.4 20.2-2 .5-.2 1.3h7.9l.1-1.4-2.9-.4 1-8.7h2.8c1.8-.2 2.8 3 3.9 5.7 1.4 3.7 2.3 4.8 3 4.8h3.5zm-13-12.3l1.3-9.7 2.5-.3c4 0 5 1.4 5 3.9 0 3.6-1.6 5.9-5.3 6.1h-3.4zm21.6 12.6c3 0 5.5-2 6.4-3.1l-.7-1.3a7.9 7.9 0 01-5.3 2.2c-2.9 0-3.6-3.3-3.4-5.3 3 0 10.4-2.2 10.4-7 0-2.3-1.4-4-4.4-4-5.2 0-9.1 5.6-9.3 11.5 0 3.5 1.9 7 6.3 7zm-3-9.2c.4-2.6 2-7.4 5.2-7.4 1.2 0 2 .7 2 2.3 0 3.2-4.6 5-7.1 5zm17.1 16.8c3 0 7.6-1.8 8.4-6.7l3-19.4-1.9.7c-.8-.3-2-.7-3.4-.7-6.4 0-10 7-10 11.8 0 3.9 1.6 6.7 5 6.7 2.1 0 3.8-1.1 4.8-2.4l-.7 4.4c-.4 2.6-1 3.2-3.7 3.2-1.6 0-3.3-.6-4.1-1l-.8 2.9c.6.3 2 .5 3.4.5zm1.7-9.8c-1.5 0-2.5-1.7-2.5-4.8 0-3.8 2-9.6 6.5-9.6.8 0 1.6.2 2.2.7l-1.6 10.9c-.9 1.2-2.7 2.8-4.6 2.8zm17.8-19.8c1.2 0 2.3-1 2.4-2.3 0-1-.8-1.8-2-1.8-1 0-2.2 1-2.2 2.2 0 1 .8 2 1.8 2zm-2.3 22c1.9 0 3.5-1.8 3.8-2.3l-.5-.8c-.9.9-1.3 1-1.6 1-.4 0-.5-.4-.4-1.1l2.2-14.9-.8-.4-4.7.8-.3 1.3 2.3.8-2 13.6c0 1.5.8 2 2 2zm13.1 0c5.3 0 9-5.6 8.9-11.3-.1-4.5-2.3-7.2-6.2-7.2-5.3 0-9 5.7-8.9 11.3 0 4.6 2.3 7.2 6.2 7.2zm.6-1.9c-2.3 0-3.5-2-3.6-5.3 0-4 1.6-9.4 5.1-9.4 2.3 0 3.5 2 3.5 5.3 0 4-1.5 9.4-5 9.4zm23.9 2c1.7 0 3.3-1.6 3.5-2l-.5-.8c-.7.5-1 .7-1.3.7-.3 0-.4-.5-.4-1.2.1-1.6.5-3.4.7-5 .3-1.7.8-4 .8-5.6 0-3.5-1.3-4.7-3.5-4.7-2.3 0-4.7 1.7-6.4 3.7l.3-3.3-.7-.4-3.8.8-.3 1.4 1.6 1-2 15h3l1.6-11.8c1.5-2.2 3.7-3.9 5.3-3.9 1.1 0 1.8.2 1.8 2.4 0 2-.5 4.6-.9 6.4-.3 1.7-.7 3.7-.7 5.2-.1 1.5.6 2 1.9 2z"/><path fill="#FFF" d="M66.8 361v-35.5h.4l.3 2.2 5 33.3h3.3l5-33.3.2-2.2h.4V361h7.2v-53h-9.5l-4.6 24.3-.3 2.8H74l-.3-2.8L69 308h-9.5V361h7.2zm33 0l1.4-10.8h7.5l1.5 10.8h7.5l-8-53h-9.5l-8 53h7.6zm7.8-19h-5.3l2.3-16.7.2-1.4h.4l.2 1.4 2.2 16.7zm21.5 19v-18.7l1.8-4.3.4-1.1h.3l.2 1 5.4 23.1h7.5l-8-35.5 7-17.4h-7.5l-6.4 17.6-.4.9h-.3V308h-7.8V361h7.8zm37 0v-8h-10v-14.5h7.2V330h-7.2v-14h10v-8h-17.8v53h17.8zm20.8 0l1.5-10.8h7.4l1.5 10.8h7.5l-8-53h-9.4l-8 53h7.5zm7.9-19h-5.4l2.3-16.7.2-1.4h.4l.2 1.4 2.3 16.7zm32.5 19v-22.3h2.1l4 22.3h7.8l-5-25.6c3-2 4.4-6.8 4.4-12 0-10-4-15.3-13.3-15.3h-7.8V361h7.8zm0-29.5v-15.7c1 0 2.5 0 3.7 1 1.1 1 2 3 2 6.8s-.9 5.7-2 6.7a5.4 5.4 0 01-3.7 1.2zm36 29.5v-8h-10v-14.5h7.2V330h-7.2v-14h10v-8h-17.8v53h17.8zm9.7 0l1.5-10.8h7.5l1.4 10.8h7.6l-8-53h-9.5l-8 53h7.5zm7.9-19h-5.3l2.2-16.7.2-1.4h.4l.2 1.4L281 342zm31.7 19v-7.2h-10.3v-45.7h-7.7V361h18zm20.4 0c7.2 0 11.1-1.4 13.2-5.5a53 53 0 002.3-21c0-10.3-.3-17-2.3-21-2.1-4-6-5.4-13.2-5.4H327V361h6.1zm1.9-7.8h-.2V316c2.6 0 4.1.2 5 2.8.3 1.3.6 3.1.7 5.6v20.4c-.1 2.5-.4 4.4-.8 5.6-.8 2.6-2.3 3-5 3h.3zm26.5 7.8v-53h-7.7v53h7.7zm13.6 0v-23h7.2v-8H375v-14h10.7v-8h-18.5v53h7.8zm21.7 0v-23h7.2v-8h-7.2v-14h10.7v-8h-18.5v53h7.8zm31.6 0v-8h-10v-14.5h7.2V330h-7.2v-14h10v-8h-17.7v53h17.7zm12.1 0v-22.3h2.1l4 22.3h7.8l-5-25.6c3-2 4.4-6.8 4.4-12 0-10-4-15.3-13.3-15.3h-7.7V361h7.7zm0-29.5v-15.7c1.1 0 2.6 0 3.7 1 1.2 1 2 3 2 6.8s-.8 5.7-2 6.7a5.4 5.4 0 01-3.7 1.2zm36 29.5v-8h-10v-14.5h7.2V330h-7.2v-14h10v-8h-17.8v53h17.8zm11.5 0v-30h.4l.7 2.4 7.5 27.6h7v-53h-7.2v30.1h-.4l-.7-2.4-7.5-27.6h-7V361h7.2zm31.2.6c2.5 0 4.5-.7 6-1.8a10 10 0 003-4c.8-1.6 1.3-3.5 1.3-5.7V343h-7.2v7.2a5 5 0 01-.3 2c-.4 1-1 2-2.7 2a2 2 0 01-1.5-.7 5 5 0 01-1.2-3.3V319c0-.8.1-1.4.3-2 .4-1 1-2 2.4-2 .8 0 1.4.3 1.8.6.8.9 1.2 2 1.2 3.4v7.2h7.2V319c0-2.1-.5-4-1.3-5.7-.6-1.5-1.6-3-3-4a9.7 9.7 0 00-6-1.8 10 10 0 00-6 1.8 10 10 0 00-3.1 4c-.8 1.6-1.2 3.6-1.3 5.7V350c0 2.2.5 4.1 1.3 5.8a9.7 9.7 0 003 3.9 9.5 9.5 0 006 1.8zm32.8-.6v-8h-10v-14.5h7.2V330h-7.2v-14h10v-8H534v53h17.8z"/><path fill="#000" d="M107.5 283.3a8 8 0 005-2.3l-.3-1.2a7 7 0 01-3 1.3c-1.1 0-1.3-.3-1.3-1.4 0-.6 0-1.6.2-2.8l1.3-9.8h4l.4-2.1h-4.1l.5-4.1h-1.5c-.5 1.4-1.4 3.4-2 4.1l-2 .8-.3 1.3h1.9l-1.4 11.3-.2 2.1c0 2.2 1.3 2.8 2.8 2.8zm13.9 0c5.2 0 9-5.6 8.8-11.3 0-4.5-2.2-7.2-6.2-7.2-5.2 0-9 5.7-8.8 11.3 0 4.6 2.2 7.2 6.2 7.2zm.5-1.9c-2.3 0-3.4-2-3.5-5.3 0-4 1.5-9.4 5-9.4 2.4 0 3.5 2 3.6 5.3 0 4-1.5 9.4-5 9.4zm24.1-20c1.2 0 2.3-1.2 2.4-2.4 0-1-.7-1.8-2-1.8-1 0-2.1 1-2.2 2.2 0 1 .8 2 1.8 2zm-2.3 22c2 0 3.6-1.9 3.9-2.4l-.5-.8c-1 .9-1.4 1-1.7 1-.3 0-.5-.4-.4-1.1l2.2-14.9-.7-.4-4.8.8-.2 1.3 2.3.8c-.9 6-1.8 11-2 13.6-.1 1.5.7 2 2 2zm29.6 0c1.8 0 3.4-1.9 3.7-2.4l-.5-.8c-1 .9-1.3 1-1.7 1-.2 0-.3-.4-.3-1.1.1-1.7.4-3.4.7-5 .3-1.8.7-4 .7-5.6 0-3.3-1.5-4.7-3.5-4.7-2.3 0-4.6 1.7-6.2 3.9-.2-2.9-1.5-3.9-3.4-3.9-2.4 0-4.7 1.7-6.4 3.7l.3-3.3-.8-.4-3.7.8-.3 1.4 1.5 1-2 15h3l1.6-11.8c1.6-2.2 3.8-3.9 5.4-3.9 1.1 0 1.7.2 1.7 2.4 0 2-.3 4.6-.6 6.4l-1 6.9h3.2l1-7.9.4-4c1.6-2 3.6-3.8 5.1-3.8.8 0 1.6.2 1.6 2.4 0 2-.5 4.5-.8 6.3l-.6 5.3c0 1.4.6 2 1.8 2zm18.6 0c1.7 0 3.2-1.6 3.4-2l-.4-.9c-.8.6-1.1.8-1.4.8-.3 0-.6-.4-.5-1.2l2-15.3-1.8.6c-.9-.3-2-.6-3-.6-6.5 0-10.2 7-10.2 11.8 0 3.9 1.6 6.7 5.1 6.7 2.1 0 3.8-1.2 4.8-2.4v.3c-.1 1.5.7 2.1 2 2.1zm-6.2-2.3c-1.5 0-2.5-1.9-2.5-5 0-3.7 2-9.4 6.4-9.4.8 0 1.5.2 2 .6l-1.3 11c-1 1.3-2.6 2.8-4.6 2.8zm16.6 9.8c3 0 7.6-1.8 8.4-6.7l3-19.4-1.9.7c-.8-.3-2-.7-3.4-.7-6.4 0-10 7-10 11.8 0 3.9 1.6 6.7 5 6.7 2.1 0 3.8-1.1 4.8-2.4l-.7 4.4c-.4 2.6-1 3.2-3.7 3.2-1.6 0-3.3-.6-4.1-1l-.8 2.9c.6.3 2 .5 3.4.5zm1.7-9.8c-1.5 0-2.5-1.7-2.5-4.8 0-3.8 2-9.6 6.5-9.6.8 0 1.6.2 2.2.7l-1.6 10.9c-.9 1.2-2.7 2.8-4.6 2.8zm17.8-19.8c1.2 0 2.3-1 2.3-2.3 0-1-.7-1.8-1.9-1.8-1 0-2.2 1-2.2 2.2 0 1 .8 2 1.8 2zm-2.3 22c1.9 0 3.5-1.8 3.8-2.3l-.5-.8c-.9.9-1.3 1-1.6 1-.4 0-.5-.4-.4-1.1l2.2-14.9-.8-.4-4.7.8-.3 1.3 2.3.8-2 13.6c0 1.5.8 2 2 2zm19.7 0c1.8 0 3.3-1.5 3.5-2l-.4-.7c-.8.5-1.1.7-1.4.7-.3 0-.4-.5-.3-1.2 0-1.6.4-3.4.7-5 .3-1.7.8-4 .8-5.6 0-3.5-1.4-4.7-3.6-4.7-2.3 0-4.7 1.7-6.3 3.7l.3-3.3-.8-.4-3.8.8-.2 1.4 1.5 1-2 15h3l1.6-11.8c1.6-2.2 3.8-3.9 5.4-3.9 1 0 1.7.2 1.7 2.4 0 2-.5 4.6-.8 6.4-.3 1.7-.7 3.7-.8 5.2-.1 1.5.7 2 2 2zm18.7 0c1.7 0 3.3-1.6 3.5-2l-.5-.8c-.8.6-1.1.8-1.4.8-.3 0-.6-.4-.5-1.2l2-15.3-1.8.6c-.9-.3-2-.6-3-.6-6.5 0-10.2 7-10.2 11.8 0 3.9 1.7 6.7 5.2 6.7 2 0 3.7-1.2 4.7-2.4v.3c0 1.5.7 2.1 2 2.1zm-6.2-2.2c-1.5 0-2.5-1.9-2.5-5 0-3.7 2-9.4 6.4-9.4.8 0 1.5.2 2.1.6l-1.4 11c-1 1.3-2.6 2.8-4.6 2.8zm16.5 2.2a8 8 0 005-2.3l-.3-1.2a7 7 0 01-3 1.3c-1.1 0-1.4-.3-1.4-1.4l.3-2.8 1.3-9.8h4l.4-2.1h-4.1l.5-4.1h-1.5c-.5 1.4-1.4 3.4-2 4.1l-2 .8-.3 1.3h1.9l-1.4 11.3-.2 2.1c0 2.2 1.3 2.8 2.8 2.8zm13-22c1.3 0 2.4-1 2.4-2.3 0-1-.7-1.8-1.9-1.8-1 0-2.2 1-2.2 2.2 0 1 .8 2 1.8 2zm-2.2 22c1.9 0 3.5-1.8 3.8-2.3l-.5-.8c-.9.9-1.3 1-1.7 1-.3 0-.4-.4-.3-1.1l2.2-14.9-.8-.4-4.7.8-.3 1.3 2.3.8c-.8 6-1.8 11-2 13.6 0 1.5.7 2 2 2zm10.6 0l2.3-.2 3.7-5.1c1.7-2.8 4.5-7.2 4.5-10 0-2-.6-3.2-2-3.2-.8 0-1.5.6-1.5 1.7 0 .7.6 1.4.5 2.5a24 24 0 01-3.8 8.7l-1.8 2.6-.2-2.8-1-10.5c-.2-1.4-.6-2.2-2.1-2.2-1.6 0-2.9 1.3-3 1.7l.4 1c.3-.3.6-.5 1-.5.2 0 .4.3.6 1l1.5 9.5.9 5.8zm19 0c3 0 5.6-2 6.4-3.1l-.7-1.3a7.9 7.9 0 01-5.3 2.2c-2.8 0-3.6-3.3-3.3-5.3 3 0 10.3-2.2 10.3-7 0-2.3-1.4-4-4.4-4-5.2 0-9 5.6-9.2 11.5-.1 3.5 1.8 7 6.2 7zm-2.9-9.2c.3-2.6 2-7.4 5.2-7.4 1.1 0 2 .7 2 2.3 0 3.2-4.6 5-7.2 5zm23 17l1-8 2.1.2c6.4 0 10-7 10-11.7 0-4-1.7-6.8-5.3-6.8a6 6 0 00-4.5 2.3l.2-1.9-.7-.4-4 .8-.4 1.3 1.7.8-3.1 23.4h3zm3.6-9.7a4 4 0 01-2.3-.5l1.6-11.2c.9-1.2 2.6-2.6 4.4-2.6 1.6 0 2.6 1.7 2.6 4.7 0 3.8-2 9.6-6.3 9.6zm16 1.6l1.4-11.2c1.2-2.8 3.2-3.7 4.7-3.7a4 4 0 011.6.2l.7-3.3-1-.2c-3 0-5 2.7-5.6 4l.3-3.6-.7-.4-3.8.8-.3 1.4 1.6 1-2 15h3.1zm15.5.3c5.2 0 9-5.6 8.9-11.3-.1-4.5-2.3-7.2-6.2-7.2-5.3 0-9 5.7-9 11.3.2 4.6 2.3 7.2 6.3 7.2zm.5-1.9c-2.3 0-3.4-2-3.5-5.3 0-4 1.5-9.4 5-9.4 2.4 0 3.5 2 3.6 5.3 0 4-1.5 9.4-5 9.4zm16.5-20c1.3 0 2.4-1.2 2.4-2.4 0-1-.7-1.8-1.9-1.8-1 0-2.2 1-2.3 2.2 0 1 .8 2 1.8 2zM373 291c3.6 0 6.4-2.8 7-8.1l2-17.8-.7-.4-4.9.8-.3 1.3 2.5.8L377 282c-.4 3.8-1.5 7.4-4.5 7.4a4 4 0 01-1.1-.1l-.6 1.2c.4.4 1.2.6 2.2.6zm18.8-7.8c3 0 5.5-2 6.4-3.1l-.7-1.3a7.9 7.9 0 01-5.3 2.2c-2.9 0-3.6-3.3-3.4-5.3 3 0 10.4-2.2 10.4-7 0-2.3-1.4-4-4.4-4-5.2 0-9.1 5.6-9.3 11.5 0 3.5 1.9 7 6.3 7zm-3-9.2c.4-2.6 2-7.4 5.2-7.4 1.2 0 2 .7 2 2.3 0 3.2-4.6 5-7.1 5zm18.6 9.2c3 0 5-1.8 5.7-2.7l-.6-1.2c-1.7 1.2-2.7 1.7-4.2 1.7-2 0-3.2-1.6-3.2-5.3 0-5.6 2-8.7 5.2-8.7 1.1 0 2.3.7 3.3 1.5l.9-3c-1-.5-2.3-.8-3.5-.8-6 0-9.2 6.7-9.2 11.5 0 4.4 2 7 5.6 7zm12.2 0a8 8 0 004.9-2.3l-.3-1.2a7 7 0 01-3 1.3c-1 0-1.3-.3-1.3-1.4 0-.6 0-1.6.2-2.8l1.3-9.8h4l.4-2.1h-4.1l.5-4.1h-1.4c-.6 1.4-1.4 3.4-2.1 4.1l-2 .8-.3 1.3h2l-1.5 11.3-.2 2.1c0 2.2 1.3 2.8 2.9 2.8zm11.5 0c3.3 0 6.2-1.7 6.2-5 0-2.6-2-4.1-3.5-5.4-1.4-1-2.7-2.3-2.5-4 .2-1.6 1.6-2 3-2 1.9 0 3.3.9 3.5 1.1l.6-2.6c-.6-.2-2.4-.6-4-.6-3.2 0-6 2-6 5 0 2.6 2.1 4.5 3.2 5.4 1.4 1 2.8 2 2.8 3.8 0 2-1.8 2.2-3.1 2.2-2 0-3.6-.7-4.2-1.2l-.6 2.4c.5.5 2.7 1 4.6 1zm21.1 0a8 8 0 005-2.3l-.4-1.2a7 7 0 01-3 1.3c-1 0-1.3-.3-1.3-1.4l.3-2.8 1.3-9.8h4l.3-2.1h-4l.5-4.1h-1.5c-.5 1.4-1.4 3.4-2 4.1l-2 .8-.3 1.3h1.9l-1.5 11.3-.2 2.1c0 2.2 1.3 2.8 2.9 2.8zm20.2 0c1.9 0 3.6-1.7 3.8-2l-.5-.9c-.9.7-1.3.9-1.6.9-.3 0-.4-.5-.4-1.2l.7-5c.4-1.7.8-4 .8-5.6 0-3.5-1.3-4.7-3.5-4.7-2.5 0-4.8 1.8-6.4 4l1.4-11.2-.8-.4-4.1.7-.3 1.3 1.9.6-3 23.2h3l1.5-11.7c1.6-2.3 3.8-4 5.4-4 1 0 1.8.2 1.8 2.4 0 2-.5 4.6-.9 6.4-.3 1.7-.7 3.7-.7 5.2-.1 1.5.6 2 1.9 2zm18.6 0c1.8 0 3.3-1.6 3.5-2l-.5-.8c-.7.6-1 .8-1.4.8-.2 0-.5-.4-.4-1.2l2-15.3-1.8.6c-1-.3-2.1-.6-3.1-.6-6.5 0-10.2 7-10.2 11.8 0 3.9 1.7 6.7 5.2 6.7 2 0 3.7-1.2 4.8-2.4v.3c-.1 1.5.7 2.1 2 2.1zm-6.1-2.2c-1.6 0-2.6-1.9-2.6-5 0-3.7 2-9.4 6.5-9.4.8 0 1.5.2 2 .6l-1.4 11c-.9 1.3-2.6 2.8-4.5 2.8zm16.5 2.2a8 8 0 004.9-2.3l-.3-1.2a7 7 0 01-3 1.3c-1 0-1.3-.3-1.3-1.4l.3-2.8 1.3-9.8h4l.3-2.1h-4l.4-4.1h-1.4c-.6 1.4-1.4 3.4-2.1 4.1l-2 .8-.3 1.3h2l-1.5 11.3-.2 2.1c0 2.2 1.3 2.8 2.9 2.8z"/><path fill="#FFF" d="M11.8 235.6c2.5 0 4.6-1.3 6-3.1l1 2.5h4.6v-26.4H12.5v6.6h3.1v9.6a5 5 0 01-.3 2c-.2 1-.9 1.9-2.3 1.9a2 2 0 01-1.5-.6c-.7-.8-1-1.8-1-3.3V193c0-.8 0-1.4.2-2 .3-1 1-2 2.3-2 .7 0 1.3.3 1.6.6.7.9 1 2 1 3.4v8h7.8v-8c0-2.1-.5-4-1.3-5.7-.6-1.5-1.6-3-3-4a9.7 9.7 0 00-6-1.8 10 10 0 00-6.1 1.8 10 10 0 00-3 4c-.8 1.6-1.3 3.6-1.3 5.7V224c-.1 2.2.2 4.1.8 5.8a9.6 9.6 0 002.8 3.9c1.3 1.1 3 1.8 5.5 1.8zm25-.6v-53h-7.7v53h7.8zm19.4 0l8.1-53h-7.6L53 211.3l-.3 2.2H52l-.3-2.2L48 182h-7.6l8 52.9h7.8zm29.4 0v-8h-10v-14.5h7.2V204h-7.2v-14h10v-8H67.8v53h17.8zm20.8 0l1.5-10.8h7.5l1.4 10.8h7.6l-8-53h-9.5l-8 53h7.5zm7.9-19h-5.4l2.3-16.7.2-1.4h.4l.2 1.4 2.3 16.7zm24.8 19l3.6-25 .4-3.2h.3l.5 3.1 3.6 25.1h6l7.1-53h-7.2l-3 27.6-.2 1.7h-.6l-.2-1.7-3.3-27.5h-5.6l-3.3 27.5-.2 1.7h-.6l-.2-1.7-3-27.5h-7.3l7.2 52.9h6zm30.7 0l1.4-10.8h7.5l1.5 10.8h7.5l-8-53h-9.5l-8 53h7.6zm7.8-19h-5.3l2.2-16.7.3-1.4h.4l.2 1.4 2.2 16.7zm27 19v-22.5l8-30.4h-7.7L201 199l-.2.5h-.1l-.2-.5-4-17H189l8 30.5V235h7.7zm38.4.6c4.6 0 8.3-4.6 8.9-13.4l-6.7-.8c0 2.4-.4 4.2-1 5.1-.5 1-1.2 1.5-1.8 1.6-.8 0-1.6-.3-2.3-.8l-2.4-1.3c1.3-2.8 2-5.8 2-7.7a27 27 0 00-.9-6.1h6.2v-4.8h-7.5l-.2-1c-1.2-4-2.4-8-2.4-11.8a9 9 0 01.7-4c.5-1.1 1.3-1.9 2.4-1.9 1.7 0 2.7.8 3.3 2 .6 1.4.8 3.2.8 5h7.5c0-3.6-.6-7.2-2.3-9.9-1.8-2.6-4.7-4.4-9.4-4.3-4 0-6.5 1.8-8.1 4.3a16.3 16.3 0 00-2.3 8.8c0 3 1.4 7.5 2.8 12l.2.8h-5.2v4.8h6.6c.7 2.2 1.1 4.3 1.1 6.1 0 2-.5 4.7-1.3 7-1.2.2-2.3.8-3.2 1.6a17.6 17.6 0 00-4.2 5.9l5.1 2.8c.2-.7.6-1.3 1-1.8.7-.9 1.7-1.8 3-1.8 1.4 0 3 1 4.6 1.8 1.6.8 3.3 1.8 5 1.8zm22.6 0c4.7 0 7.3-2.3 8.7-5.1 1.3-2.8 1.5-6.2 1.5-8.7v-11.9c0-.8-.2-3.6-1.3-6a7.6 7.6 0 00-7.4-4.9c-.5 0-1 0-1.6.2-1 .4-2 1-2.8 1.6v-11h12V182H256v27.8h6.5c0-.5.3-1.5.9-2.4.6-.8 1.3-1.4 2.1-1.4 1.7 0 2.5 1.6 2.5 3.8v11.9c0 2.6-.2 4.5-.6 5.5-.3 1-1 1.5-1.8 1.5-1 0-1.5-.5-1.9-1.6-.3-1-.5-2.9-.5-5.5v-2.1h-7.7c0 3.5.1 7.5 1.5 10.6 1.3 3.1 3.8 5.4 8.6 5.4zm24.8 0c2.6 0 4.5-.7 6-1.8a10 10 0 003-4c.8-1.6 1.3-3.5 1.4-5.7V193c-.1-2.1-.6-4-1.3-5.7-.7-1.5-1.7-3-3.1-4a9.7 9.7 0 00-6-1.8 10 10 0 00-6 1.8 10 10 0 00-3 4c-.9 1.6-1.3 3.6-1.4 5.7V224c0 2.2.5 4.1 1.3 5.8a9.7 9.7 0 003 3.9 9.5 9.5 0 006 1.8zm0-7.6a2 2 0 01-1.5-.6c-.7-.8-1.1-1.8-1.1-3.3V193c0-.8 0-1.4.3-2 .3-1 1-2 2.3-2 .6 0 1.2.3 1.6.6.7.9 1 2 1 3.4V224a5 5 0 01-.3 2c-.3 1-1 2-2.3 2zm25.5 7.6c2.6 0 4.5-.7 6-1.8a10 10 0 003-4c.8-1.6 1.3-3.5 1.3-5.7V193c0-2.1-.5-4-1.3-5.7-.6-1.5-1.6-3-3-4a9.7 9.7 0 00-6-1.8 10 10 0 00-6 1.8 10 10 0 00-3.1 4c-.8 1.6-1.2 3.6-1.3 5.7V224c0 2.2.5 4.1 1.3 5.8a9.7 9.7 0 003 3.9 9.5 9.5 0 006 1.8zm0-7.6a2 2 0 01-1.5-.6c-.8-.8-1.1-1.8-1.1-3.3V193c0-.8 0-1.4.3-2 .3-1 .9-2 2.3-2 .6 0 1.2.3 1.6.6.7.9 1 2 1 3.4V224a5 5 0 01-.3 2c-.3 1-1 2-2.3 2zm44.5 7v-8h-10v-14.5h7.2V204h-7.2v-14h10v-8h-17.8v53h17.8zm17.9 0l8-53h-7.5l-3.9 29.2-.3 2.2h-.4l-.3-2.2L370 182h-7.5l8 52.9h7.8zm29.4 0v-8h-10v-14.5h7.2V204h-7.2v-14h10v-8h-17.8v53h17.8zm12 0v-22.3h2.2l4 22.3h7.8l-5-25.6c3-2 4.3-6.8 4.3-12 0-10-4-15.3-13.2-15.3H412V235h7.8zm0-29.5v-15.7c1.1 0 2.6 0 3.7 1 1.2 1 2.1 3 2.1 6.8s-1 5.7-2 6.7a5.4 5.4 0 01-3.7 1.2zm31.6 29.5v-22.5l8-30.4h-7.7l-3.9 16.9-.2.5h-.2l-.2-.5-3.9-17h-7.6l8 30.5V235h7.7zm29.6 0v-35.5h.4l.3 2.2 5 33.3h3.3l5-33.3.3-2.2h.4V235h7.2v-53h-9.5l-4.6 24.3-.4 2.8h-.1l-.4-2.8-4.6-24.2h-9.5V235h7.2zm37.5.6c2.6 0 4.5-.7 6-1.8a10 10 0 003-4c.9-1.6 1.3-3.5 1.4-5.7V193c-.1-2.1-.5-4-1.3-5.7-.7-1.5-1.7-3-3.1-4a9.7 9.7 0 00-6-1.8 10 10 0 00-6 1.8 10 10 0 00-3 4c-.9 1.6-1.3 3.6-1.4 5.7V224c.1 2.2.5 4.1 1.3 5.8a9.7 9.7 0 003 3.9 9.5 9.5 0 006.1 1.8zm0-7.6a2 2 0 01-1.5-.6c-.7-.8-1-1.8-1-3.3V193c0-.8 0-1.4.2-2 .3-1 1-2 2.3-2 .7 0 1.2.3 1.6.6.7.9 1 2 1 3.4V224a5 5 0 01-.3 2c-.3 1-1 2-2.3 2zm22.8 7v-30h.4l.6 2.4 7.6 27.6h7v-53h-7.2v30.1h-.4l-.7-2.4-7.6-27.6H534V235h7.2zm33.7 0v-45h7.3v-8h-22.5v8h7.4v45h7.8zm18.1 0v-23h6v23h7.8v-53H599v22h-6v-22h-7.8v53h7.8z"/><path fill="#000" d="M89.5 157.3l2.6-.2 2.6-5.1 3-6.5.8-2.2.1 2.2.5 6 .6 5.8 3-.2 3.2-5.1c1.7-2.8 4.2-7 4.2-9.9 0-2.2-.6-3.3-2-3.3-.8 0-1.4.6-1.4 1.7 0 .7.5 1.4.4 2.5-.2 3.4-2.7 8-3.4 9l-1.7 2.6-.2-3-1-12.6H98l-5.5 13-1.2 2.6-.2-3-.8-10.6c-.2-1.4-.5-2.2-2.2-2.2-1.6 0-2.8 1.3-3 1.7l.4 1c.3-.3.7-.5 1-.5.3 0 .5.3.6 1l1.3 9.5 1 5.8zm35.5 0c1.9 0 3.6-1.7 3.8-2l-.5-.9c-.9.7-1.3.9-1.7.9-.2 0-.3-.5-.3-1.2.1-1.6.5-3.4.7-5 .4-1.7.8-4 .8-5.6 0-3.5-1.4-4.7-3.5-4.7-2.5 0-4.8 1.8-6.4 4l1.4-11.2-.8-.4-4.1.7-.3 1.3 1.8.6-3 23.2h3l1.6-11.7c1.6-2.3 3.8-4 5.4-4 1 0 1.8.2 1.8 2.4 0 2-.5 4.6-.9 6.4-.3 1.7-.7 3.7-.7 5.2-.1 1.5.6 2 1.9 2zm13 0c5.2 0 9-5.6 8.9-11.3-.1-4.5-2.3-7.2-6.3-7.2-5.2 0-8.9 5.7-8.8 11.3 0 4.6 2.2 7.2 6.2 7.2zm.5-1.9c-2.3 0-3.4-2-3.5-5.3 0-4 1.5-9.4 5-9.4 2.4 0 3.5 2 3.6 5.3 0 4-1.5 9.4-5 9.4zm21 9.7l1-8 2.1.2c6.4 0 10-7 10-11.7 0-4-1.7-6.8-5.3-6.8a6 6 0 00-4.5 2.3l.3-1.9-.8-.4-4 .8-.4 1.3 1.7.8-3.1 23.4h3zm3.6-9.7a4 4 0 01-2.2-.5l1.5-11.2c1-1.2 2.6-2.6 4.4-2.6 1.6 0 2.6 1.7 2.6 4.7 0 3.8-2 9.6-6.3 9.6zm18.4 2c5.3 0 9-5.7 9-11.4-.2-4.5-2.3-7.2-6.3-7.2-5.2 0-9 5.7-8.8 11.3 0 4.6 2.2 7.2 6.1 7.2zm.6-2c-2.3 0-3.5-2-3.5-5.3 0-4 1.5-9.4 5-9.4 2.3 0 3.5 2 3.5 5.3.1 4-1.5 9.4-5 9.4zm17.3 2c5.2 0 9-5.7 8.9-11.4-.1-4.5-2.3-7.2-6.2-7.2-5.3 0-9 5.7-8.9 11.3 0 4.6 2.2 7.2 6.2 7.2zm.5-2c-2.2 0-3.4-2-3.5-5.3 0-4 1.5-9.4 5.1-9.4 2.3 0 3.5 2 3.5 5.3 0 4-1.5 9.4-5 9.4zm13.8 2c1.9 0 3.5-1.9 3.8-2.4l-.5-.8c-1 1-1.4 1-1.7 1-.3 0-.4-.4-.3-1.1l3.1-22.5-.7-.4-4.1.7-.3 1.3 1.9.6L212 154v1.2c0 1.5.5 2.1 1.7 2.1zm20.6 0c5.3 0 9-5.7 8.9-11.4-.1-4.5-2.3-7.2-6.2-7.2-5.3 0-9 5.7-8.9 11.3.1 4.6 2.3 7.2 6.2 7.2zm.6-2c-2.3 0-3.5-2-3.5-5.3-.1-4 1.5-9.4 5-9.4 2.3 0 3.5 2 3.5 5.3 0 4-1.5 9.4-5 9.4zm16.3 2c2.3 0 4-1.2 5.1-2.3-.2 1.3.4 2.2 1.8 2.2 1.8 0 3.6-1.8 3.8-2.3l-.5-.8c-.9.8-1.3 1-1.6 1-.4 0-.5-.3-.4-1.2l2-15h-3l-1.9 14.2c-1 1-2.6 2-4 2s-2.2-.5-2.2-2.7c0-1.5.2-2.8.4-4.7l1.1-8.6-.7-.4-3.8.8-.3 1.4 1.5 1-.8 5.7c-.2 1.8-.5 4-.5 5.3 0 3.3 1.6 4.3 4 4.3zm17.4-.4l1.4-11.2c1.2-2.8 3.2-3.7 4.7-3.7a4 4 0 011.6.2l.7-3.3-1-.2c-3 0-5 2.7-5.6 4l.3-3.6-.7-.4-3.8.8-.3 1.4 1.6 1-2 15h3.1zm39.5.3c1.9 0 3.5-1.8 3.8-2.3l-.5-.8c-1 .9-1.4 1-1.7 1-.3 0-.4-.4-.3-1.1 0-1.7.4-3.4.6-5 .3-1.8.7-4 .7-5.6 0-3.3-1.4-4.7-3.5-4.7-2.3 0-4.6 1.7-6.2 3.9-.2-2.9-1.4-3.9-3.4-3.9-2.3 0-4.7 1.7-6.4 3.7l.3-3.3-.7-.4-3.8.8-.3 1.4 1.6 1-2 15h3l1.6-11.8c1.5-2.2 3.7-3.9 5.3-3.9 1.1 0 1.7.2 1.7 2.4 0 2-.3 4.6-.6 6.4l-.9 6.9h3l1-7.9c.3-1.2.5-2.6.6-4 1.5-2 3.5-3.8 5-3.8.9 0 1.6.2 1.6 2.4 0 2-.4 4.5-.7 6.3-.3 1.8-.6 3.7-.7 5.3 0 1.4.7 2 1.9 2zm13 0c5.2 0 9-5.6 8.8-11.3 0-4.5-2.2-7.2-6.2-7.2-5.2 0-9 5.7-8.8 11.3 0 4.6 2.2 7.2 6.2 7.2zm.5-1.9c-2.3 0-3.4-2-3.5-5.3 0-4 1.5-9.4 5-9.4 2.4 0 3.5 2 3.6 5.3 0 4-1.5 9.4-5 9.4zm24 2c1.7 0 3.2-1.6 3.5-2l-.5-.8c-.7.5-1.1.7-1.4.7-.3 0-.3-.5-.3-1.2 0-1.6.4-3.4.7-5 .3-1.7.8-4 .8-5.6 0-3.5-1.4-4.7-3.5-4.7-2.4 0-4.7 1.7-6.4 3.7l.3-3.3-.7-.4-3.8.8-.3 1.4 1.5 1-2 15h3l1.6-11.8c1.6-2.2 3.8-3.9 5.4-3.9 1.1 0 1.8.2 1.8 2.4 0 2-.6 4.6-.9 6.4-.3 1.7-.7 3.7-.8 5.2 0 1.5.7 2 2 2zm13 0c3 0 5.5-2 6.4-3.2l-.7-1.3a7.9 7.9 0 01-5.3 2.2c-2.8 0-3.6-3.3-3.4-5.3 3 0 10.4-2.2 10.4-7 0-2.3-1.4-4-4.4-4-5.2 0-9 5.6-9.2 11.5-.1 3.5 1.8 7 6.2 7zm-2.9-9.3c.3-2.6 2-7.4 5.2-7.4 1.1 0 2 .7 2 2.3 0 3.2-4.6 5-7.2 5zm12.4 16.8c3 0 4.9-1.5 5.6-2.6 1.3-1.5 3-4.3 6-10.3 1.6-3 3.8-6.7 3.8-10.2 0-2-.6-3-2-3-.9 0-1.5.6-1.5 1.7 0 .7.6 1.4.5 2.5-.5 3.5-1.7 5.5-3 8.7l-2.5 5-.3-4.3-1.3-11.4c-.2-1.3-.6-2.2-2.1-2.2-1.6 0-3.1 1.6-3.4 2l.5 1c.7-.7 1-.8 1.2-.8.4 0 .5.3.7 1l2.6 15.8h1c-1.5 3.7-3.8 4.8-5.1 4.8-1.5 0-2.4-.5-2.6-.6l-.8 2.5c.7.2 2 .4 2.7.4zm29-7.6c3.2 0 6.1-1.7 6.1-5 0-2.6-1.9-4.1-3.5-5.4-1.3-1-2.7-2.3-2.5-4 .2-1.6 1.6-2 3-2 2 0 3.3.8 3.5 1.1l.6-2.6c-.5-.2-2.3-.6-4-.6-3.2 0-6 2-6 5 0 2.6 2.1 4.5 3.2 5.4 1.4 1 2.8 2 2.8 3.8 0 2-1.8 2.2-3.1 2.2-2 0-3.5-.7-4.2-1.2l-.6 2.4c.6.5 2.7 1 4.6 1zm15.8 0c5.2 0 9-5.6 8.9-11.3-.1-4.5-2.3-7.2-6.2-7.2-5.3 0-9 5.7-8.9 11.3 0 4.6 2.2 7.2 6.2 7.2zm.5-1.9c-2.2 0-3.4-2-3.5-5.3 0-4 1.5-9.4 5.1-9.4 2.3 0 3.5 2 3.5 5.3 0 4-1.5 9.4-5 9.4zm22.3 2l2.6-.3 2.6-5.1 3-6.5.9-2.2v2.2l.6 6 .6 5.8 2.9-.2 3.2-5.1c1.8-2.8 4.2-7 4.2-9.9 0-2.2-.5-3.3-1.9-3.3-.9 0-1.5.6-1.5 1.7 0 .7.5 1.4.5 2.5-.3 3.4-2.7 8-3.4 9l-1.7 2.6-.3-3-1-12.6h-2.7l-5.5 13-1.2 2.6-.2-3-.8-10.6c-.1-1.4-.5-2.2-2.1-2.2s-2.9 1.3-3.1 1.7l.4 1c.4-.3.7-.5 1-.5.3 0 .5.3.7 1l1.3 9.5 1 5.8zm29.2 0c3 0 5.5-2 6.4-3.2l-.7-1.3a7.9 7.9 0 01-5.3 2.2c-2.9 0-3.6-3.3-3.4-5.3 3 0 10.4-2.2 10.4-7 0-2.3-1.4-4-4.4-4-5.2 0-9 5.6-9.2 11.5-.1 3.5 1.8 7 6.2 7zM462 148c.3-2.6 2-7.4 5.1-7.4 1.2 0 2 .7 2 2.3 0 3.2-4.6 5-7 5zm26.1 9.2c3 0 5-1.8 5.7-2.7l-.6-1.2c-1.7 1.2-2.7 1.7-4.2 1.7-2 0-3.2-1.6-3.2-5.3 0-5.6 2-8.7 5.2-8.7 1.1 0 2.3.7 3.3 1.5l.9-3c-1-.5-2.3-.8-3.5-.8-6 0-9.2 6.7-9.2 11.5 0 4.4 2 7 5.6 7zm20.1 0c1.8 0 3.3-1.6 3.5-2l-.5-.8c-.7.6-1 .8-1.3.8-.3 0-.6-.4-.5-1.2l2-15.3-1.8.6c-.9-.3-2.1-.6-3.1-.6-6.4 0-10.1 7-10.1 11.8 0 3.9 1.6 6.7 5.1 6.7 2 0 3.7-1.2 4.8-2.4v.3c-.1 1.5.7 2.1 2 2.1zm-6.1-2.2c-1.6 0-2.5-1.9-2.5-5 0-3.7 2-9.4 6.4-9.4.8 0 1.5.2 2 .6l-1.4 11c-.9 1.3-2.6 2.8-4.5 2.8zm25.5 2.2c1.7 0 3.2-1.5 3.5-2l-.5-.7c-.7.5-1.1.7-1.4.7-.3 0-.3-.5-.3-1.2 0-1.6.4-3.4.7-5 .3-1.7.8-4 .8-5.6 0-3.5-1.4-4.7-3.5-4.7-2.4 0-4.7 1.7-6.4 3.7l.3-3.3-.7-.4-3.8.8-.3 1.4 1.5 1-2 15h3l1.6-11.8c1.6-2.2 3.8-3.9 5.4-3.9 1.1 0 1.8.2 1.8 2.4 0 2-.6 4.6-.9 6.4-.3 1.7-.7 3.7-.8 5.2 0 1.5.7 2 2 2z"/><path fill="#FFF" d="M123.4 109V86.7h2l4.1 22.3h7.8l-5-25.6c3-2 4.3-6.8 4.3-12 0-10-4-15.3-13.2-15.3h-7.8V109h7.8zm0-29.5V63.8c1 0 2.5 0 3.7 1 1.1 1 2 3 2 6.8s-.9 5.7-2 6.7a5.4 5.4 0 01-3.7 1.2zm36 29.5v-8h-10V86.5h7.2V78h-7.2V64h10v-8h-17.8v53h17.8zm13 .6c2.5 0 4.5-1.3 6-3.1l1 2.5h4.5V82.6h-10.8v6.6h3v9.6a5 5 0 01-.2 2c-.3 1-1 1.9-2.3 1.9a2 2 0 01-1.5-.6c-.8-.8-1.1-1.8-1.1-3.3V67c0-.8 0-1.4.3-2 .2-1 .9-2 2.3-2 .6 0 1.2.3 1.5.6.8.9 1 2 1 3.4v8h7.8v-8c0-2.1-.5-4-1.3-5.7-.6-1.5-1.6-3-3-4a9.7 9.7 0 00-6-1.8 10 10 0 00-6 1.8 10 10 0 00-3.1 4c-.8 1.6-1.2 3.6-1.3 5.7V98c0 2.2.2 4.1.9 5.8a9.6 9.6 0 002.7 3.9c1.3 1.1 3 1.8 5.5 1.8zm27.5 0c2.6 0 4.6-.7 6-1.8a10 10 0 003-4c.9-1.6 1.3-3.5 1.4-5.7v-42h-7.8v42a5 5 0 01-.3 2c-.3 1-1 2-2.3 2a2 2 0 01-1.5-.7c-.7-.8-1-1.8-1-3.3v-42h-7.9v42c.1 2.2.6 4.1 1.3 5.8a9.7 9.7 0 003 3.9 9.5 9.5 0 006.1 1.8zm34.1-.6v-7.2h-10.3V56.1H216V109h18zm8.6 0l1.5-10.8h7.4L253 109h7.5l-8-53H243l-8 53h7.6zm7.9-19H245l2.3-16.7.2-1.4h.4l.2 1.4 2.3 16.7zm21.4 19V86.7h2.1l4 22.3h7.8l-5-25.6c3-2 4.4-6.8 4.4-12 0-10-4-15.3-13.3-15.3h-7.8V109h7.8zm0-29.5V63.8c1.1 0 2.5 0 3.7 1 1.1 1 2 3 2 6.8s-.9 5.7-2 6.7a5.4 5.4 0 01-3.7 1.2zm39 30c4.3 0 7-1.5 8.6-4 1.7-2.4 2.2-5.7 2.2-9.2 0-3-.9-5.7-2.3-8.3a81.3 81.3 0 00-5-8c-1.4-2.3-3-4.4-4.1-6.4a12 12 0 01-2-5.7c0-3.1.7-5.2 2.7-5.3 1.2 0 2 1 2.5 2.5s.6 3.4.6 5.2l7.6-.8c0-3-.4-6.4-1.9-9.3-1.5-2.8-4.3-4.8-9-4.7a9.4 9.4 0 00-7.8 4 14.8 14.8 0 00-2.3 8.4c0 1.4.2 2.9.7 4.2.8 2.8 2 5.6 3.8 8.2l4.9 7.3 2 3.2c1.1 2 2 4 2 5.8 0 3.4-.9 5.8-3.2 5.8-1.6 0-2.5-1.1-3-2.8a20 20 0 01-.6-6.2l-7.7.8c0 4 .4 7.7 2 10.6 1.6 2.9 4.4 4.8 9.3 4.8zm24.9 0c2.6 0 4.5-.6 6-1.7a10 10 0 003-4c.8-1.6 1.3-3.5 1.3-5.7V91H339V98a5 5 0 01-.3 2c-.4 1-1 2-2.7 2a2 2 0 01-1.5-.7 5 5 0 01-1.2-3.3V67c0-.8.1-1.4.3-2 .4-1 1-2 2.4-2 .8 0 1.5.3 1.8.6.8.9 1.2 2 1.2 3.4v7.2h7.2V67c0-2.1-.5-4-1.2-5.7-.7-1.5-1.7-3-3.1-4a9.7 9.7 0 00-6-1.8 10 10 0 00-6 1.8 10 10 0 00-3 4c-.9 1.6-1.3 3.6-1.4 5.7V98c0 2.2.5 4.1 1.3 5.8a9.7 9.7 0 003 3.9 9.5 9.5 0 006 1.8zm24.9 0c2.6 0 4.5-.6 6-1.7a10 10 0 003-4c.9-1.6 1.3-3.5 1.4-5.7V67c-.1-2.1-.5-4-1.3-5.7-.7-1.5-1.7-3-3.1-4a9.7 9.7 0 00-6-1.8 10 10 0 00-6 1.8 10 10 0 00-3 4c-.9 1.6-1.3 3.6-1.4 5.7V98c.1 2.2.5 4.1 1.3 5.8a9.7 9.7 0 003 3.9 9.5 9.5 0 006 1.8zm0-7.5a2 2 0 01-1.5-.6c-.7-.8-1.1-1.8-1.1-3.3V67c0-.8 0-1.4.3-2 .3-1 1-2 2.3-2 .6 0 1.2.3 1.6.6.7.9 1 2 1 3.4V98a5 5 0 01-.3 2c-.3 1-1 2-2.3 2zm26 7.6c2.5 0 4.4-.7 5.9-1.8a10 10 0 003-4c.9-1.6 1.3-3.5 1.4-5.7v-42h-7.8v42a5 5 0 01-.3 2c-.3 1-1 2-2.3 2a2 2 0 01-1.5-.7c-.7-.8-1-1.8-1-3.3v-42h-7.9v42c.1 2.2.5 4.1 1.3 5.8a9.7 9.7 0 003 3.9 9.5 9.5 0 006.1 1.8zm25.7 0c4.2 0 6.9-1.6 8.6-4a18.2 18.2 0 000-17.6 81.3 81.3 0 00-5-8c-1.6-2.3-3.1-4.4-4.3-6.4a12 12 0 01-1.9-5.7c0-3.1.6-5.2 2.7-5.3 1.2 0 2 1 2.5 2.5s.6 3.4.6 5.2l7.6-.8c0-3-.4-6.4-2-9.3-1.5-2.8-4.2-4.8-8.9-4.7a9.4 9.4 0 00-7.8 4 14.8 14.8 0 00-2.3 8.4c0 1.4.2 2.9.6 4.2.8 2.8 2.1 5.6 3.8 8.2 1.8 2.7 3.4 5.2 5 7.3l2 3.2c1 2 2 4 2 5.8 0 3.4-1 5.8-3.2 5.8-1.7 0-2.5-1.1-3-2.8a20 20 0 01-.7-6.2l-7.6.8c0 4 .3 7.7 2 10.6 1.5 2.9 4.3 4.8 9.3 4.8zm32.7-.6v-8h-10V86.5h7.2V78h-7.2V64h10v-8h-17.7v53H445zm12.1 0V86.7h2.1l4 22.3h7.8l-5-25.6c3-2 4.4-6.8 4.4-12 0-10-4-15.3-13.3-15.3h-7.7V109h7.7zm0-29.5V63.8c1.1 0 2.6 0 3.7 1 1.2 1 2.1 3 2.1 6.8s-1 5.7-2 6.7a5.4 5.4 0 01-3.8 1.2zm28 30c4.2 0 6.9-1.5 8.5-4 1.7-2.4 2.3-5.7 2.3-9.2 0-3-1-5.7-2.3-8.3a81.3 81.3 0 00-5-8l-4.2-6.4a12 12 0 01-2-5.7c0-3.1.7-5.2 2.8-5.3 1.2 0 2 1 2.5 2.5s.5 3.4.5 5.2l7.7-.8c0-3-.5-6.4-2-9.3-1.5-2.8-4.2-4.8-8.9-4.7a9.4 9.4 0 00-7.8 4A14.8 14.8 0 00475 68c0 1.4.2 2.9.6 4.2.8 2.8 2 5.6 3.8 8.2 1.7 2.7 3.4 5.2 5 7.3l2 3.2c1 2 2 4 2 5.8 0 3.4-1 5.8-3.2 5.8-1.7 0-2.5-1.1-3-2.8a20 20 0 01-.7-6.2l-7.6.8c0 4 .3 7.7 2 10.6 1.5 2.9 4.3 4.8 9.3 4.8z"/><path fill="#000" d="M191.4 31.2l6-16.1 1.8 16h3.2l9.3-22 1.9-.4.2-1.6h-6.6l-.1 1.6 2 .3-6.3 15.8-1.2 3.5-.3-4.1L199.7 9l2.3-.3.3-1.6H195l-.2 1.6 1.9.3.2 1.9-5.4 14.3-.9 3.1-.5-4.1L188 9l2.4-.3.2-1.6h-7.3l-.2 1.6 2 .3 3 22.2h3.2zm26.8.1c3 0 5.5-2 6.4-3.1l-.7-1.3a7.9 7.9 0 01-5.3 2.2c-2.9 0-3.6-3.3-3.4-5.3 3 0 10.4-2.2 10.4-7 0-2.3-1.4-4-4.4-4-5.2 0-9 5.6-9.2 11.5-.1 3.5 1.8 7 6.2 7zm-2.9-9.2c.3-2.6 2-7.4 5.1-7.4 1.2 0 2 .7 2 2.3 0 3.2-4.6 5-7.1 5zm15.7-5.7c2.8-1.2 6.1-3.7 6.1-8 0-1.6-.7-3.7-2.8-4.3L232 6.5V7c1 .1 1.7 1.4 1.7 2.7 0 2.2-1.7 4.6-3.3 5.1v.4l.6 1zM242.8 31l1.4-11.2c1.3-2.8 3.2-3.7 4.7-3.7a4 4 0 011.6.2l.7-3.3-1-.2c-2.9 0-5 2.7-5.6 4l.4-3.6-.8-.4-3.8.8-.3 1.4 1.6 1-1.9 15h3zm15.5.3c3 0 5.6-2 6.4-3.1l-.7-1.3a7.9 7.9 0 01-5.3 2.2c-2.8 0-3.6-3.3-3.3-5.3 3 0 10.3-2.2 10.3-7 0-2.3-1.4-4-4.4-4-5.2 0-9 5.6-9.2 11.5-.1 3.5 1.8 7 6.2 7zm-2.9-9.2c.3-2.6 2-7.4 5.2-7.4 1.1 0 2 .7 2 2.3 0 3.2-4.6 5-7.2 5zm32.5 9.2c1.8 0 3.3-1.6 3.5-2l-.5-.8c-.7.6-1 .8-1.4.8-.2 0-.5-.4-.4-1.2l2-15.3-1.8.6c-1-.3-2.1-.6-3.1-.6-6.4 0-10.2 7-10.2 11.8 0 3.9 1.7 6.7 5.2 6.7 2 0 3.7-1.2 4.8-2.4v.3c-.1 1.5.7 2.1 2 2.1zm-6.1-2.2c-1.6 0-2.6-1.9-2.6-5 0-3.7 2-9.4 6.5-9.4.8 0 1.5.2 2 .6l-1.4 11c-.9 1.3-2.6 2.8-4.5 2.8zm26 2.2c6.4 0 10-7 10-11.7 0-4-1.7-6.8-5.3-6.8-2 0-3.7 1.3-4.7 2.6l1.3-9.8-.8-.4-3.8.6-.3 1.3 1.5.7-3 23.5 1.4-.7c1 .4 2.5.7 3.8.7zm.6-1.9c-1 0-1.8-.1-2.4-.6l1.4-10.8c.9-1.2 2.7-3 4.6-3 1.6 0 2.6 1.8 2.6 4.8 0 3.8-1.9 9.6-6.2 9.6zm17.4 2c2.3 0 4-1.2 5.1-2.3-.1 1.3.4 2.2 1.8 2.2 1.8 0 3.6-1.8 3.8-2.3l-.5-.8c-.9.8-1.3 1-1.6 1-.4 0-.5-.3-.4-1.2l2-15h-3L331 27.2c-1 1-2.6 2-4 2s-2.2-.5-2.2-2.7c0-1.5.2-2.8.4-4.7l1.1-8.6-.7-.4-3.8.8-.3 1.4 1.5 1-.8 5.7c-.2 1.8-.5 4-.5 5.3 0 3.3 1.6 4.3 4 4.3zm26.4 0c1.8 0 3.3-1.6 3.6-2l-.5-.8c-.7.5-1.1.7-1.4.7-.3 0-.4-.5-.3-1.2 0-1.6.4-3.4.7-5 .3-1.7.8-4 .8-5.6 0-3.5-1.4-4.7-3.5-4.7-2.4 0-4.7 1.7-6.4 3.7l.3-3.3-.8-.4-3.7.8-.3 1.4 1.5 1-2 15h3l1.6-11.8c1.6-2.2 3.8-3.9 5.4-3.9 1.1 0 1.8.2 1.8 2.4 0 2-.6 4.6-1 6.4-.2 1.7-.6 3.7-.7 5.2 0 1.5.7 2 2 2zm12.3 0c3 0 5-1.9 5.7-2.8l-.6-1.2c-1.7 1.2-2.7 1.7-4.2 1.7-2 0-3.2-1.6-3.2-5.3 0-5.6 2.1-8.7 5.2-8.7 1.1 0 2.3.7 3.3 1.5l.9-3c-1-.5-2.3-.8-3.5-.8-6 0-9.2 6.7-9.2 11.5 0 4.4 2.1 7 5.6 7zm20.9 0c1.9 0 3.6-1.8 3.8-2.2l-.5-.8c-.9.7-1.3.9-1.7.9-.3 0-.3-.5-.3-1.2.1-1.6.5-3.4.7-5 .4-1.7.8-4 .8-5.6 0-3.5-1.4-4.7-3.5-4.7-2.5 0-4.8 1.8-6.4 4l1.4-11.2-.8-.4-4.1.7-.3 1.3 1.8.6-3 23.2h3l1.6-11.7c1.6-2.3 3.8-4 5.4-4 1 0 1.8.2 1.8 2.4 0 2-.5 4.6-.9 6.4-.3 1.7-.7 3.7-.7 5.2-.1 1.5.6 2 1.9 2zm20.6 0c5.2 0 9-5.7 8.8-11.4 0-4.5-2.2-7.2-6.2-7.2-5.2 0-9 5.7-8.8 11.3 0 4.6 2.2 7.2 6.2 7.2zm.5-2c-2.3 0-3.5-2-3.5-5.3 0-4 1.5-9.4 5-9.4 2.3 0 3.5 2 3.6 5.3 0 4-1.5 9.4-5.1 9.4zm9 9.6c3 0 5.5-2.8 6-7l2.1-16.8h3.7l.3-2.2h-3.7l.2-1.4c.3-2.6 1.2-4.4 2.8-4.4 1.1 0 1.8.5 2.2.7l1-2.6c-.9-.3-1.7-.4-2.5-.4-3 0-6 3.2-6.6 7l-.2 1.1-2.3 1-.2 1.2h2.2L418.3 33c-.3 2.1-.8 3.8-1.9 3.8-.7 0-2.3-.5-2.5-.6l-.9 2.6 2.6.2z"/></g></svg>