<svg xmlns="http://www.w3.org/2000/svg" width="280" height="64"><path fill="#FFF" fill-rule="evenodd" d="M219.432 26.21h-2.963v5.618h2.942c1.75 0 2.82-1.09 2.82-2.84 0-1.749-1.07-2.778-2.8-2.778zm-104.43 1.09c-2.201 0-3.971 1.812-3.971 4.219 0 2.51 1.77 4.403 3.971 4.403 2.202 0 3.972-1.893 3.972-4.403 0-2.407-1.77-4.218-3.972-4.218zm92.846-.761c-.39-.205-.864-.33-1.995-.33h-2.347v5.207h2.923c1.585 0 2.572-1.008 2.572-2.634 0-1.07-.411-1.832-1.153-2.243zm25.606-.494c-2.962 0-5.37 2.387-5.37 5.556 0 3.272 2.408 5.741 5.37 5.741 2.963 0 5.35-2.469 5.35-5.741 0-3.169-2.387-5.556-5.35-5.556zm35.706 12.923h-8.54V24.44h2.038v12.758h6.502v1.77zm-18.838.247c-4.198 0-7.47-3.334-7.47-7.614 0-4.177 3.272-7.408 7.47-7.408s7.449 3.23 7.449 7.408c0 4.28-3.251 7.614-7.449 7.614zm-16.868 0c-4.198 0-7.47-3.334-7.47-7.614 0-4.177 3.272-7.408 7.47-7.408s7.449 3.23 7.449 7.408c0 4.28-3.251 7.614-7.449 7.614zm-13.713-5.618h-3.272v5.371h-2.037V24.44h5.31c2.654 0 4.567 1.79 4.567 4.548 0 2.757-1.913 4.609-4.568 4.609zm-10.06 5.371l-3.067-5.783h-3.108v5.783h-2.036V24.44h4.445c1.522 0 2.16.124 2.716.33 1.481.555 2.448 2.016 2.448 3.93 0 1.852-1.029 3.416-2.613 3.93v.041s.165.186.432.659l3.087 5.638h-2.305zm-10.688 0h-8.786V24.44h8.436v1.77h-6.4v4.548h5.207v1.77h-5.206v4.67h6.75v1.77zm-16.133 0h-2.037l-5.371-14.528h2.202l3.601 10.269c.268.781.556 1.996.556 1.996h.041s.288-1.215.555-1.996l3.642-10.269h2.16l-5.349 14.528zm-11.409 0h2.037V24.44h-2.037v14.528zm-2.102 0h-8.54V24.44h2.038v12.758h6.502v1.77zm-16.5 0h-9.508V24.255h9.219v3.087h-5.618v2.675h4.487v3.086h-4.487v2.778h5.907v3.087zm-15.957 0l-.452-6.626c-.082-1.111 0-2.47 0-2.47h-.041s-.494 1.544-.824 2.47l-1.543 4.26h-3.086l-1.544-4.26c-.329-.926-.823-2.47-.823-2.47h-.041s.082 1.359 0 2.47l-.453 6.626h-3.621l1.214-14.713h3.91l2.14 6.215c.329.946.74 2.428.74 2.428h.041s.412-1.482.741-2.428l2.14-6.215h3.91l1.193 14.713h-3.6zm-21.89.247c-4.444 0-7.696-3.375-7.696-7.696 0-4.218 3.252-7.511 7.696-7.511 4.445 0 7.696 3.293 7.696 7.51 0 4.322-3.251 7.697-7.696 7.697zm-14.588 0c-3.457 0-5.37-2.099-5.37-2.099l1.893-2.737s1.666 1.523 3.518 1.523c.742 0 1.544-.288 1.544-1.173 0-1.75-6.626-1.687-6.626-6.214 0-2.717 2.284-4.507 5.206-4.507 3.169 0 4.732 1.667 4.732 1.667l-1.522 2.943s-1.482-1.297-3.251-1.297c-.74 0-1.564.33-1.564 1.152 0 1.852 6.626 1.523 6.626 6.174 0 2.448-1.872 4.568-5.186 4.568zm-7.282-.247h-9.508V24.255h9.22v3.087h-5.619v2.675h4.487v3.086h-4.487v2.778h5.907v3.087zm-15.075 0h-4.013l-1.852-7.429c-.226-.946-.288-1.728-.288-1.728h-.041s-.062.782-.288 1.728l-1.852 7.429h-4.054l-3.58-14.713h3.786l1.852 9.198c.185.906.185 1.543.185 1.543h.041s.02-.637.247-1.543l2.263-9.198h2.902l2.202 9.198c.226.906.246 1.543.246 1.543h.041s0-.637.186-1.543l2.017-9.198h3.724l-3.724 14.713zm-18.889 0l-.905-3.087h-4.589l-.885 3.087h-3.704l5-14.713h3.787l5 14.713h-3.704zM40.28 14v36.217h100.07l12.538 12.538V50.217H280V14H40.28zm210.043 12.045c-2.963 0-5.371 2.387-5.371 5.556 0 3.272 2.408 5.741 5.371 5.741 2.963 0 5.35-2.469 5.35-5.741 0-3.169-2.387-5.556-5.35-5.556zM11.636 22.946l8.946 8.946v-8.946l8.946 8.946-8.946 8.946v-8.946l-8.946 8.946V22.946zM0 50.216h38.492V14H0v36.217zM56 27.61h-.042s-.329 1.605-.597 2.53l-.843 2.862h2.901l-.823-2.861c-.268-.926-.597-2.53-.597-2.53z"/></svg>