<svg width="230" height="40" viewBox="0 0 230 40" xmlns="http://www.w3.org/2000/svg"><title>site-logo</title><path d="M180.028 10.017h-2.43v4.61h2.413c1.437 0 2.314-.895 2.314-2.33s-.877-2.28-2.296-2.28zm-85.677.895c-1.805 0-3.257 1.486-3.257 3.46 0 2.06 1.452 3.614 3.258 3.614 1.807 0 3.26-1.554 3.26-3.613 0-1.975-1.453-3.46-3.26-3.46zm76.175-.625c-.32-.168-.71-.27-1.638-.27h-1.925v4.272h2.398c1.3 0 2.11-.83 2.11-2.162 0-.88-.337-1.503-.945-1.84zm21.007-.405c-2.43 0-4.406 1.96-4.406 4.558 0 2.685 1.976 4.71 4.406 4.71 2.432 0 4.39-2.025 4.39-4.71 0-2.6-1.958-4.558-4.39-4.558zm29.295 10.602h-7.006V8.566h1.672v10.467h5.335v1.45zm-15.455.203c-3.445 0-6.13-2.735-6.13-6.247 0-3.427 2.685-6.077 6.13-6.077 3.443 0 6.11 2.65 6.11 6.077 0 3.512-2.667 6.247-6.11 6.247zm-13.84 0c-3.443 0-6.128-2.735-6.128-6.247 0-3.427 2.685-6.077 6.128-6.077 3.444 0 6.112 2.65 6.112 6.077 0 3.512-2.668 6.247-6.112 6.247zm-11.25-4.61h-2.685v4.407h-1.67V8.566h4.355c2.178 0 3.747 1.468 3.747 3.73 0 2.263-1.57 3.782-3.748 3.782zm-8.254 4.407l-2.516-4.744h-2.55v4.744h-1.67V8.566h3.646c1.25 0 1.772.1 2.228.27 1.216.456 2.01 1.654 2.01 3.224 0 1.52-.845 2.803-2.145 3.225v.033s.136.153.356.54l2.532 4.626h-1.89zm-8.768 0h-7.21V8.566h6.923v1.45h-5.25v3.733h4.27v1.45h-4.27v3.833h5.537v1.45zm-13.236 0h-1.672l-4.406-11.918h1.807l2.954 8.424c.22.64.456 1.637.456 1.637h.034s.236-.996.455-1.637l2.988-8.424h1.773l-4.39 11.918zm-9.36 0h1.67V8.566h-1.67v11.918zm-1.725 0h-7.007V8.566h1.67v10.467h5.336v1.45zm-13.54 0h-7.8V8.414h7.565v2.532h-4.61v2.195h3.68v2.533h-3.68v2.28h4.846v2.53zm-13.09 0l-.37-5.436c-.068-.91 0-2.026 0-2.026h-.035s-.405 1.267-.675 2.026l-1.266 3.495h-2.532l-1.267-3.495c-.27-.76-.675-2.026-.675-2.026h-.034s.068 1.115 0 2.026l-.37 5.436h-2.972l.995-12.07h3.207l1.756 5.098c.27.777.608 1.992.608 1.992h.034s.34-1.215.608-1.992l1.756-5.1h3.208l.98 12.072h-2.955zm-17.96.203c-3.645 0-6.313-2.77-6.313-6.314 0-3.46 2.668-6.162 6.314-6.162 3.648 0 6.315 2.702 6.315 6.163 0 3.545-2.667 6.314-6.314 6.314zm-11.967 0c-2.836 0-4.407-1.722-4.407-1.722l1.554-2.246s1.367 1.25 2.886 1.25c.61 0 1.267-.237 1.267-.963 0-1.435-5.437-1.385-5.437-5.1 0-2.227 1.875-3.696 4.272-3.696 2.6 0 3.882 1.368 3.882 1.368l-1.248 2.415s-1.216-1.064-2.668-1.064c-.608 0-1.283.27-1.283.944 0 1.52 5.437 1.25 5.437 5.065 0 2.008-1.536 3.747-4.254 3.747zm-5.975-.203h-7.8V8.414h7.563v2.532h-4.608v2.195h3.68v2.533h-3.68v2.28h4.846v2.53zm-12.368 0h-3.292l-1.52-6.094c-.185-.777-.236-1.418-.236-1.418h-.034s-.05.64-.236 1.418l-1.52 6.094h-3.325L50.94 8.414h3.105l1.52 7.546c.152.743.152 1.266.152 1.266h.034s.018-.523.203-1.266l1.857-7.547h2.38l1.807 7.547c.186.743.203 1.266.203 1.266h.033s0-.523.153-1.266l1.654-7.547h3.056l-3.056 12.07zm-15.497 0l-.743-2.532h-3.764l-.726 2.532h-3.04l4.103-12.07h3.107l4.102 12.07h-3.04zM33 30h82.146L125 40V30h105V0H33.046L33 30zM205.372 9.882c-2.432 0-4.407 1.96-4.407 4.558 0 2.685 1.975 4.71 4.407 4.71 2.43 0 4.388-2.025 4.388-4.71 0-2.6-1.958-4.558-4.388-4.558zM8 7l8.078 7.34V7l8.08 7.34-8.08 7.34v-7.34L8 21.68V7zM0 30h31V0H0v30zm45.943-18.835h-.033s-.27 1.317-.49 2.077l-.692 2.347h2.38l-.675-2.348c-.22-.76-.49-2.077-.49-2.077z" fill="#FFF" fill-rule="evenodd"/></svg>